# File created by Blade
# Date/Time:  Tue Apr 07 20:53:11 2015
# Frame Rate: 120.000 fps
#------------------------------------------------------
:FULLY-SPECIFIED
:DEGREES
350
root -25.490792 32.329883 5.642443 -9.769455 -79.887272 15.818575
Spine -9.779703 -10.736387 -3.928978
Head 25.070318 -4.745087 2.766105
LeftShoulder -17.168347 19.272985 45.816098
LeftArm 131.939522 -61.482630 -87.920201
LeftForeArm 19.760824 -0.000000 25.314271
LeftHand 19.850442 0.000000 32.139349
LeftHandThumb1 -26.253704 0.000000 33.147579
RightShoulder -21.547584 33.137519 -61.618893
RightArm 57.717823 29.822909 39.955373
RightForeArm -14.831143 -0.000000 23.829072
RightHand 28.241439 -0.000000 -45.715326
RightHandThumb1 -24.326973 -0.000000 -32.862282
LeftUpLeg 2.170085 -1.938064 -6.819517
LeftLeg 9.358481 -0.000000 -0.000000
LeftFoot -19.597487 8.726545 -16.523359
LeftToeBase -10.476970 -0.000000 0.000000
RightUpLeg -21.905202 -9.371906 3.897335
RightLeg -4.207060 -0.000000 0.000000
RightFoot 19.332456 -12.620650 7.526809
RightToeBase -2.522517 -0.000000 0.000000
351
root -25.326459 32.344109 5.659119 -11.376256 -79.879909 17.388370
Spine -9.488534 -10.564090 -4.296195
Head 25.107506 -4.890972 2.786514
LeftShoulder -17.097746 19.281964 45.822000
LeftArm 131.743687 -61.492766 -87.659969
LeftForeArm 19.861491 -0.000000 25.264435
LeftHand 19.956241 -0.000000 32.165020
LeftHandThumb1 -26.253704 0.000000 33.147579
RightShoulder -21.442808 33.073061 -61.564203
RightArm 57.565668 29.728325 39.814795
RightForeArm -14.979228 -0.000000 23.804001
RightHand 28.247971 -0.000000 -45.591153
RightHandThumb1 -24.326973 -0.000000 -32.862282
LeftUpLeg 2.019604 -1.967177 -7.152597
LeftLeg 9.183165 -0.000000 -0.000000
LeftFoot -19.335265 8.793944 -16.473608
LeftToeBase -10.373280 -0.000000 0.000000
RightUpLeg -22.346300 -9.611731 3.743726
RightLeg -3.868792 -0.000000 0.000000
RightFoot 19.880609 -12.493007 7.283436
RightToeBase -2.326064 -0.000000 0.000000
352
root -25.173822 32.360251 5.672841 -12.774054 -79.963129 18.681135
Spine -9.153984 -10.315612 -4.584411
Head 25.174245 -4.996392 2.770604
LeftShoulder -17.044304 19.325579 45.768287
LeftArm 131.526733 -61.563941 -87.312521
LeftForeArm 19.987140 -0.000000 25.174698
LeftHand 20.006592 -0.000000 32.130695
LeftHandThumb1 -26.253704 0.000000 33.147579
RightShoulder -21.358703 33.057913 -61.577709
RightArm 57.349867 29.572918 39.692857
RightForeArm -15.276459 0.000000 23.821611
RightHand 28.322194 -0.000000 -45.556766
RightHandThumb1 -24.326973 -0.000000 -32.862282
LeftUpLeg 1.953400 -1.920072 -7.419515
LeftLeg 8.990055 -0.000000 -0.000000
LeftFoot -19.094115 8.904687 -16.448177
LeftToeBase -10.338407 -0.000000 0.000000
RightUpLeg -22.682951 -9.724207 3.632599
RightLeg -3.551179 -0.000000 0.000000
RightFoot 20.337111 -12.389592 7.060191
RightToeBase -1.764863 -0.000000 0.000000
353
root -25.028356 32.379020 5.685724 -13.829704 -80.061410 19.658700
Spine -8.889196 -10.066404 -4.773275
Head 25.242694 -5.083893 2.682231
LeftShoulder -17.060850 19.447084 45.671359
LeftArm 131.363088 -61.570409 -87.021470
LeftForeArm 20.126212 -0.000000 25.131139
LeftHand 20.048660 -0.000000 31.999964
LeftHandThumb1 -26.253704 0.000000 33.147579
RightShoulder -21.231799 32.977370 -61.523382
RightArm 57.262796 29.441913 39.545784
RightForeArm -15.410152 -0.000000 23.810315
RightHand 28.285919 0.000000 -45.435629
RightHandThumb1 -24.326973 -0.000000 -32.862282
LeftUpLeg 1.867208 -1.886576 -7.627900
LeftLeg 8.797683 -0.000000 -0.000000
LeftFoot -18.902460 9.042755 -16.507457
LeftToeBase -10.143066 -0.000000 0.000000
RightUpLeg -23.051573 -9.938963 3.657573
RightLeg -3.230728 -0.000000 0.000000
RightFoot 20.881114 -12.157898 6.538350
RightToeBase -1.348129 -0.000000 0.000000
354
root -24.891036 32.399221 5.695288 -14.620906 -80.256210 20.363348
Spine -8.660930 -9.750247 -4.854514
Head 25.360531 -5.093879 2.543929
LeftShoulder -17.022119 19.582178 45.560678
LeftArm 131.195526 -61.608893 -86.758732
LeftForeArm 20.305197 0.000000 25.099052
LeftHand 20.176080 -0.000000 31.818093
LeftHandThumb1 -26.253704 0.000000 33.147579
RightShoulder -21.126963 32.950388 -61.548179
RightArm 57.172477 29.239063 39.452048
RightForeArm -15.613540 -0.000000 23.790619
RightHand 28.300737 -0.000000 -45.466852
RightHandThumb1 -24.326973 -0.000000 -32.862282
LeftUpLeg 1.801027 -1.748195 -7.757375
LeftLeg 8.583363 -0.000000 -0.000000
LeftFoot -18.692994 9.207920 -16.506245
LeftToeBase -10.016670 -0.000000 0.000000
RightUpLeg -23.385869 -9.956286 3.706472
RightLeg -2.909264 -0.000000 0.000000
RightFoot 21.376491 -12.045372 6.121895
RightToeBase -0.894738 -0.000000 0.000000
355
root -24.760157 32.421572 5.702702 -15.024175 -80.467175 20.649931
Spine -8.399552 -9.453286 -4.846778
Head 25.463894 -5.099943 2.382097
LeftShoulder -17.062376 19.723590 45.409470
LeftArm 130.937533 -61.680382 -86.336013
LeftForeArm 20.392355 -0.000000 25.023877
LeftHand 20.242053 -0.000000 31.846521
LeftHandThumb1 -26.253704 0.000000 33.147579
RightShoulder -21.069667 32.968233 -61.605625
RightArm 57.114762 29.024454 39.457142
RightForeArm -15.787348 -0.000000 23.858524
RightHand 28.301738 -0.000000 -45.318608
RightHandThumb1 -24.326973 -0.000000 -32.862282
LeftUpLeg 1.739916 -1.538777 -7.799669
LeftLeg 8.435902 -0.000000 -0.000000
LeftFoot -18.505147 9.289360 -16.517232
LeftToeBase -9.868793 -0.000000 0.000000
RightUpLeg -23.626594 -9.940381 3.823835
RightLeg -2.702830 -0.000000 0.000000
RightFoot 21.957917 -12.057062 5.767642
RightToeBase -0.615788 -0.000000 0.000000
356
root -24.637058 32.446363 5.706773 -15.114372 -80.735933 20.604269
Spine -8.150527 -9.140725 -4.771914
Head 25.576072 -5.059087 2.263691
LeftShoulder -17.088824 19.884353 45.321070
LeftArm 130.633590 -61.704582 -85.987753
LeftForeArm 20.467634 -0.000000 25.089401
LeftHand 20.321611 -0.000000 31.815062
LeftHandThumb1 -26.253704 0.000000 33.147579
RightShoulder -20.965296 33.019520 -61.588596
RightArm 57.083272 28.812737 39.448115
RightForeArm -15.927362 0.000000 23.949645
RightHand 28.214264 -0.000000 -45.324725
RightHandThumb1 -24.326973 -0.000000 -32.862282
LeftUpLeg 1.693323 -1.290954 -7.768382
LeftLeg 8.305162 -0.000000 -0.000000
LeftFoot -18.315332 9.405319 -16.497052
LeftToeBase -9.845021 -0.000000 0.000000
RightUpLeg -23.806938 -9.790512 3.973950
RightLeg -2.521536 -0.000000 0.000000
RightFoot 22.484964 -12.186332 5.455119
RightToeBase -0.129165 -0.000000 0.000000
357
root -24.518981 32.472490 5.706353 -14.928050 -80.980201 20.287848
Spine -7.921129 -8.870921 -4.651610
Head 25.732078 -5.020639 2.110825
LeftShoulder -17.052986 19.896544 45.242880
LeftArm 130.178546 -61.690443 -85.507402
LeftForeArm 20.691354 0.000000 25.139476
LeftHand 20.362183 -0.000000 31.845122
LeftHandThumb1 -26.253704 0.000000 33.147579
RightShoulder -20.889466 33.098645 -61.597569
RightArm 57.063742 28.540905 39.392064
RightForeArm -15.971618 -0.000000 23.980244
RightHand 28.260781 0.000000 -45.327100
RightHandThumb1 -24.326973 -0.000000 -32.862282
LeftUpLeg 1.618973 -1.056900 -7.686172
LeftLeg 8.224653 -0.000000 -0.000000
LeftFoot -18.107865 9.470236 -16.491961
LeftToeBase -9.765243 -0.000000 0.000000
RightUpLeg -23.971136 -9.602573 4.139476
RightLeg -2.337579 -0.000000 0.000000
RightFoot 22.933655 -12.403643 5.193155
RightToeBase 0.452224 -0.000000 -0.000000
358
root -24.409246 32.500281 5.703476 -14.634087 -81.191744 19.851262
Spine -7.683829 -8.668252 -4.541708
Head 25.868785 -4.956436 2.004961
LeftShoulder -17.034467 19.912519 45.211507
LeftArm 129.665746 -61.694905 -85.004445
LeftForeArm 20.820311 -0.000000 25.224348
LeftHand 20.381220 -0.000000 31.802681
LeftHandThumb1 -26.253704 0.000000 33.147579
RightShoulder -20.785793 33.081434 -61.521917
RightArm 57.185081 28.382290 39.453389
RightForeArm -16.006011 0.000000 24.007846
RightHand 28.187733 -0.000000 -45.316206
RightHandThumb1 -24.326973 -0.000000 -32.862282
LeftUpLeg 1.553052 -0.861345 -7.589852
LeftLeg 8.172990 -0.000000 -0.000000
LeftFoot -17.896662 9.545152 -16.500581
LeftToeBase -9.791637 -0.000000 0.000000
RightUpLeg -24.086583 -9.434774 4.316683
RightLeg -2.150417 -0.000000 0.000000
RightFoot 23.266694 -12.644312 4.943186
RightToeBase 1.049973 -0.000000 -0.000000
359
root -24.300875 32.529421 5.697356 -13.969995 -81.398323 19.064055
Spine -7.479054 -8.512493 -4.365962
Head 26.039516 -4.868269 1.865720
LeftShoulder -17.008703 20.012383 45.135243
LeftArm 129.264597 -61.776930 -84.574833
LeftForeArm 20.782620 -0.000000 25.274215
LeftHand 20.420109 -0.000000 31.825341
LeftHandThumb1 -26.253704 0.000000 33.147579
RightShoulder -20.671318 33.060619 -61.467157
RightArm 57.345437 28.269856 39.625774
RightForeArm -16.062290 -0.000000 24.049981
RightHand 28.098345 -0.000000 -45.248679
RightHandThumb1 -24.326973 -0.000000 -32.862282
LeftUpLeg 1.447322 -0.757431 -7.443600
LeftLeg 8.167799 -0.000000 -0.000000
LeftFoot -17.733996 9.662349 -16.528992
LeftToeBase -9.728884 -0.000000 0.000000
RightUpLeg -24.172218 -9.084496 4.457209
RightLeg -2.025737 -0.000000 0.000000
RightFoot 23.718005 -13.070905 4.586645
RightToeBase 1.518358 -0.000000 -0.000000
360
root -24.198884 32.559033 5.689975 -13.084366 -81.522022 18.044157
Spine -7.265921 -8.437349 -4.192812
Head 26.186470 -4.769204 1.762201
LeftShoulder -16.973536 20.040913 45.095237
LeftArm 128.853002 -61.788195 -84.155376
LeftForeArm 20.879549 -0.000000 25.295911
LeftHand 20.463743 -0.000000 31.881035
LeftHandThumb1 -26.253704 0.000000 33.147579
RightShoulder -20.597310 33.172603 -61.471206
RightArm 57.372534 28.037611 39.686805
RightForeArm -16.030099 -0.000000 24.064447
RightHand 28.072666 -0.000000 -45.280479
RightHandThumb1 -24.326973 -0.000000 -32.862282
LeftUpLeg 1.349744 -0.737641 -7.283485
LeftLeg 8.201242 -0.000000 -0.000000
LeftFoot -17.580340 9.783861 -16.545857
LeftToeBase -9.625992 -0.000000 0.000000
RightUpLeg -24.235471 -8.755473 4.582375
RightLeg -1.851160 -0.000000 0.000000
RightFoot 24.069656 -13.549093 4.237076
RightToeBase 1.975658 -0.000000 -0.000000
